<svg id="Layer_1" data-name="Layer 1" xmlns="http://www.w3.org/2000/svg" xmlns:xlink="http://www.w3.org/1999/xlink" viewBox="0 0 590 144"><defs><style>.cls-1{fill:none;}.cls-2{clip-path:url(#clip-path);}.cls-3{fill:#004c97;}.cls-4{fill:url(#linear-gradient);}.cls-5{fill:url(#linear-gradient-2);}.cls-6{fill:url(#linear-gradient-3);}</style><clipPath id="clip-path"><rect class="cls-1" x="239.39" y="-2.83" width="112.23" height="118.97"/></clipPath><linearGradient id="linear-gradient" x1="296" y1="125.24" x2="296" y2="142.68" gradientUnits="userSpaceOnUse"><stop offset="0" stop-opacity="0.17"/><stop offset="0.59" stop-color="#fff" stop-opacity="0"/></linearGradient><linearGradient id="linear-gradient-2" x1="355" y1="133" x2="457" y2="133" gradientUnits="userSpaceOnUse"><stop offset="0" stop-color="#fff" stop-opacity="0"/><stop offset="0" stop-color="#fff" stop-opacity="0"/><stop offset="0.12" stop-color="#fff" stop-opacity="0.23"/><stop offset="0.25" stop-color="#fff" stop-opacity="0.44"/><stop offset="0.37" stop-color="#fff" stop-opacity="0.61"/><stop offset="0.5" stop-color="#fff" stop-opacity="0.75"/><stop offset="0.62" stop-color="#fff" stop-opacity="0.86"/><stop offset="0.75" stop-color="#fff" stop-opacity="0.94"/><stop offset="0.87" stop-color="#fff" stop-opacity="0.98"/><stop offset="1" stop-color="#fff"/></linearGradient><linearGradient id="linear-gradient-3" x1="135" x2="237" xlink:href="#linear-gradient-2"/></defs><title>Artboard 1</title><g class="cls-2"><g id="IMF_Seal_Blue" data-name="IMF Seal Blue"><path class="cls-3" d="M254.68,74.1l.39-.1L254,69.89c-1.72-.1-3.24-.28-4.86-.44h0c1.21-1,2.7-2.26,3.88-3.23l-1-3.87-.39.1c.19.81.12.92-.49,1.07l-2.67.7c-1.07.28-2.78.68-3.25.72s-.62-.06-.76-.39l-.21-.53-.4.1.85,3.23.4-.1-.09-.63a.67.67,0,0,1,.44-.84h0a30.27,30.27,0,0,1,3.15-1l1.88-.49v.12l-5.55,4.05.38,1.43,6.73.39v.12l-5.09,1.3c-.61.16-.7.1-.94-.7l-.4.1,1.29,5,.4-.1c-.19-.81-.13-.9.47-1.07l5.88-1.54c.61-.16.71-.12,1,.7"/><path class="cls-3" d="M256,84.68c2.38-1.29,3.08-3.49,1.29-6.6s-4-3.61-6.32-2.3-3.06,3.51-1.28,6.58,4,3.63,6.33,2.31m-5.91-2.58c-.49-.88.08-1.81,2.58-3.26,2.79-1.57,3.76-1.29,4.17-.57.7,1.29-1,2.36-2.65,3.27-2.43,1.36-3.61,1.53-4.16.54"/><path class="cls-3" d="M276.4,103.87l2.7-6.1.41.18c.79.35.87.49.72,2.51l.59.26,1-2.34-8.11-3.59-1,2.34.61.27c1.41-1.47,1.55-1.51,2.34-1.16l.41.18-2.7,6.1c-.26.58-.5.56-1.46.16l-.17.38,5.41,2.39.17-.38c-.94-.45-1.15-.62-.89-1.2"/><path class="cls-3" d="M288.52,107.37a70,70,0,0,1-1.63-7.89l-3-.68a74.79,74.79,0,0,1-4.92,6.46c-.39.38-.5.41-1.39.26l-.09.4,3.63.84.09-.4-.93-.28c-.39-.12-.43-.27-.25-.57s.63-1,1.06-1.67l2.91.67c.1.56.23,1.43.28,1.91s0,.52-.4.47l-.81-.1-.09.4,6.46,1.51.09-.4c-.9-.28-.93-.36-1.12-.9m-7-4c.49-.76,1.36-2,1.83-2.67h.09c.17,1,.4,2.39.53,3.23Z"/><path class="cls-3" d="M310.81,98.6c.18-.53.44-.62,1.07-.83l-.1-.39-3.35.87.1.39.85-.14c.3,0,.36.1.31.43s-.38,2.17-.68,3.53h0c-.85-.8-2.26-2.2-2.76-2.71-.19-.19-.21-.35,0-.43L307,99l-.1-.39-6.25,1.63.1.39c.61-.12.77-.12,1.17.18.74.56,2.65,2.27,3.61,3.19a1.11,1.11,0,0,1,.31.54l.4,1.68c.16.59.09.66-1.19,1l.1.4,6.46-1.67-.12-.35c-1.29.3-1.39.27-1.57-.32l-.47-1.8a1,1,0,0,1,0-.61c.34-1.29,1-3.49,1.29-4.34"/><path class="cls-3" d="M323.77,98.58l-1.47-2.15.58-.4c.62-.43.85-.32,1.88.35l.47-.34-1.8-2.58-.47.32c.26,1.29.23,1.39-.4,1.83L322,96l-1.78-2.58c-.19-.27-.17-.35.18-.59l.36-.25c1-.7,1.61-.3,2.92.44l.47-.32-1.43-2.09-6.55,4.47.22.32c.71-.45.81-.41,1.17.1l3.42,5c.36.52.34.63-.34,1.12l.23.34,4.44-3-.22-.45c-.88.57-1,.54-1.29,0"/><path class="cls-3" d="M333.49,87.11,330.4,84.3c-.47-.43-.47-.54,0-1.1l-.3-.27L327,86.22l.3.27c.53-.53.63-.52,1.1-.09l3.5,3.23c1.11,1,1.41,1.68.88,2.25s-1.2.34-2.32-.7L327,88c-.47-.43-.47-.54,0-1.1l-.3-.27L323.58,90l.3.27c.53-.54.65-.53,1.11-.1l3.14,2.91c1.47,1.38,2.76,1.57,5-.83s1.9-3.68.35-5.17"/><path class="cls-3" d="M342.08,64.49a3.79,3.79,0,0,0-3.33.32,5.54,5.54,0,0,0-1.9,3.42l-1.41,5.23.39.1c.25-.8.35-.85,1-.68l5.88,1.59c.61.17.66.26.47,1.07l.4.1,1.2-4.47a7.65,7.65,0,0,0,.3-3.75,3.79,3.79,0,0,0-3-2.95m2.26,6.28c-.13.49-.31.58-.67.47l-6.3-1.69c-.27-.08-.28-.23-.17-.65.34-1.29,1.59-1.65,4.07-1,3.14.84,3.32,2.05,3.1,2.86"/><path class="cls-3" d="M246,46.27l5.89,1.51c.61.16.67.25.47,1.07l.4.1,1.29-5-.4-.1c-.23.83-.32.85-.94.7L246.92,43c-.61-.16-.68-.23-.49-1.07l-.38-.11-1.29,5,.39.1c.23-.8.34-.85,1-.7"/><path class="cls-3" d="M254.37,30c-1.09-1.73-1.09-1.87-.56-2.58l.27-.35,5.24,4.12c.49.39.41.62-.21,1.46l.32.26,2.17-2.76V28.73l-.22-.14-5.24-4.11.27-.35c.53-.68.68-.71,2.58-.08l.4-.5-2-1.57-5.48,7,2,1.57Z"/><path class="cls-3" d="M294.48,13.59l-.89-.09c-.36,0-.43-.18-.32-.52s.39-1.14.67-1.85l2.73.09c.18.52.45,1.29.59,1.82s.08.5-.28.53h-.74V14l6.14.21v-.42c-.87-.1-.9-.17-1.16-.67a73.12,73.12,0,0,1-2.83-7.43l-2.78-.09a78.2,78.2,0,0,1-3.32,7.28c-.28.44-.39.5-1.21.53v.41l3.42.12Zm.88-6h.08c.31,1,.77,2.28,1,3.06h-2.31c.31-.84.88-2.22,1.19-3"/><path class="cls-3" d="M305.88,7.32l.47.1-1.66,6.46c-.16.61-.41.62-1.41.39l-.1.4,5.72,1.47.1-.4c-1-.28-1.29-.43-1.07-1l1.66-6.46.44.12c.84.22.93.35,1.12,2.36l.62.16.63-2.48L303.77,6.2l-.63,2.48.63.17c1.15-1.68,1.29-1.74,2.11-1.53"/><path class="cls-3" d="M315.06,17.57,317.58,12c.26-.57.35-.63,1.14-.3l.17-.36-4.77-2.16-.17.36c.75.38.79.47.52,1.06l-2.52,5.53c-.26.57-.36.61-1.14.28l-.17.38L315.4,19l.17-.38c-.76-.38-.79-.47-.53-1"/><path class="cls-3" d="M318.08,15.4c-1.57,2.2-1.16,4.56,1.94,6.75s5.48,1.82,7-.39,1.19-4.56-2-6.77-5.45-1.82-7,.4m3.13,2.23c1.86-2.58,2.88-2.75,3.61-2.22,1.29.89.18,2.65-.89,4.16-1.62,2.27-2.58,2.91-3.63,2.21s-.8-1.74.9-4.15"/><path class="cls-3" d="M332.38,33.07c-.53,0-.63-.09-1.06-.79l-.36.19,1.59,3,.36-.19-.35-.81c-.14-.34,0-.47.28-.53s1.17-.22,1.94-.34l1.29,2.42c-.36.41-1,1.07-1.29,1.41s-.4.32-.61,0l-.43-.61-.36.19,2.84,5.44.36-.19c-.34-.81-.3-.87,0-1.29a73,73,0,0,1,5.05-6.14l-1.29-2.47a78.16,78.16,0,0,1-8,.71m6.17,0v.08l-2.14,2.42-1.07-2.05c.88-.14,2.36-.34,3.19-.44"/><path class="cls-3" d="M344.44,41.58l-.39.09c.17.83.09.92-.52,1.06l-5.93,1.38c-.62.14-.71.09-.92-.72l-.4.09,1.78,7.75,2.7-.35-.14-.63c-2-.47-2.4-.76-2.58-1.65s-.16-1,.45-1.17l5.81-1.29c.62-.14.74,0,1,.88l.39-.09Z"/><path class="cls-3" d="M272,96.28l1.29-1.73-6.46-4.75-.23.32c.66.52.67.63.3,1.15l-3.6,4.88c-.38.5-.47.53-1.17,0l-.25.34,6.65,4.92,1.29-1.71-.44-.32c-1.68.62-2,.52-2.86-.13s-.87-.66-.45-1.21l1.55-2.12h0c.72.53.92.68.67,1.54l.45.34L270,96.1l-.45-.34c-.67.41-.87.25-1.59-.28h0l1.69-2.29c.23-.31.28-.34.62-.09l.41.3c1,.71,1,.79.8,2.58Z"/><path class="cls-3" d="M270.54,21.53l-1.37-1.65-.43.36c.22,1.78,0,2-.79,2.75s-.84.7-1.29.17l-1.76-2.08h0c.68-.58.88-.74,1.65-.3l.44-.36-1.36-1.61-.44.36c.25.75,0,.9-.65,1.49h0l-1.83-2.17c-.25-.3-.26-.35,0-.62l.39-.32c.92-.77,1-.77,2.69-.18l.44-.38-1.38-1.63-6.11,5.17.26.31c.66-.52.77-.5,1.17,0l3.6,4.26h2.58Z"/><path class="cls-3" d="M268.89,14.05l2.78,5.4c.28.56.25.67-.56,1.11l.19.36,5-2.58L276.1,18c-.84.4-.93.36-1.21-.19l-1.19-2.31.25-.13c.38-.19,1.29-.67,1.57-.25a14.66,14.66,0,0,0,1.29,2.18c.67.58,1,.28,2.42-.45l1.83-.94-.19-.36c-.74.25-.92.22-1.91-.93-.66-.75-1.21-1.43-3.28-.75v-.07c2-1.11,2-2.09,1.47-3-.83-1.6-2.25-1.07-4-.17l-5.65,2.91.18.35c.83-.4.94-.35,1.23.21m3.42-2.51a1.53,1.53,0,0,1,2.31.75c.39.76.31,1.54-1.06,2.25l-.27.14L272,12.2c-.17-.34-.16-.45.28-.68"/><path class="cls-3" d="M300.06,106.49c-.25-1-.43-1.83-2.58-2.17v-.08c2.29-.06,2.71-1,2.71-2,0-1.81-1.5-2-3.47-2h-6.37v.4c.92,0,1,.12,1,.75v6.07c0,.63-.09.71-1,.74v.41H296v-.41c-.93,0-1-.1-1-.74v-2.58h.27c.43,0,1.43,0,1.51.5a14.66,14.66,0,0,0,.17,2.58c.34.83.74.71,2.36.71h2.05v-.47c-.76-.12-.92-.22-1.29-1.71m-4.79-2.58h-.31v-2.73c0-.38.06-.47.57-.47a1.53,1.53,0,0,1,1.82,1.69c0,.87-.44,1.5-2,1.5"/><path class="cls-3" d="M281.64,8.42l.59,3a30.09,30.09,0,0,1,.49,3.08c0,.49-.52.7-.87.83l-.36.12.08.4,3.88-.79-.08-.4-.88.09a.61.61,0,0,1-.72-.47h0c-.16-.41-.49-2-.71-3l-.43-2.11h0c1.91,1.8,3.41,3.61,5.36,5.41l2.57-.51-.85-4.63a18.09,18.09,0,0,1-.4-2.58c0-.62.49-.67.83-.77l.39-.1-.08-.41-3.88.77.08.39.84-.09a.57.57,0,0,1,.7.4.13.13,0,0,0,0,.05,20.14,20.14,0,0,1,.65,2.58l.27,1.29h0c-1.51-1.29-3.26-2.95-4.62-4.19l-3.88.79.08.39c.83-.14.92-.06,1,.56"/><path class="cls-3" d="M325.06,24.75l-.28-.26-.31.27.23.26h.68l-.32-.28"/><path class="cls-3" d="M330.9,21.11l-2.25,2c-.77.68-1.88,1.61-2.34,1.93h1.49l1.39-1.29,1.6-1.46h0c-.58,2.58-1.41,4.78-2,7.36l1.74,2,3.53-3.13a18.09,18.09,0,0,1,2.05-1.67c.54-.31.84.09,1.09.32l.28.28.3-.27-2.58-2.95-.3.27.5.67a.57.57,0,0,1,0,.8l0,0a20,20,0,0,1-2,1.91l-1,.9h0c.36-2,.9-4.3,1.29-6.11l-2.67-3-.3.27c.54.65.52.76,0,1.17"/><path class="cls-3" d="M335.55,75.34c-.47-.41-.19-.81,0-1.12l.17-.36-.35-.2-1.91,3.46.35.19.47-.7a.57.57,0,0,1,.75-.28l0,0a20.06,20.06,0,0,1,2.34,1.14l1.19.66h0c-2,.31-4.35.58-6.19.83l-1.93,3.51.35.19c.43-.72.54-.75,1.1-.44l2.58,1.46a23.78,23.78,0,0,1,2.66,1.61c.36.32.21.84.06,1.19l-.14.35.36.19,1.94-3.49-.36-.19-.5.72a.61.61,0,0,1-.82.26h0A30.25,30.25,0,0,1,335,82.93l-1.88-1h0c2.58-.3,5-.26,7.6-.59L342,79l-4.12-2.29a18,18,0,0,1-2.25-1.38"/><path class="cls-3" d="M264.87,89.27c.53-.32.84.06,1.09.3l.3.27.3-.27-2.7-2.88-.29.27.52.67a.57.57,0,0,1,0,.8l0,0a20.05,20.05,0,0,1-1.81,1.87l-1,.91h0c.31-2,.79-4.31,1.12-6.14l-2.74-2.93-.3.27c.56.63.54.75.08,1.17l-2.18,2c-.8.75-2,1.78-2.36,2s-.87-.06-1.15-.31l-.37-.23-.3.28,2.73,2.92.3-.28-.54-.72a.61.61,0,0,1,0-.86h0c.27-.35,1.39-1.45,2.2-2.2l1.57-1.47h0c-.52,2.58-1.29,4.81-1.78,7.4l1.8,1.91,3.44-3.21a18.09,18.09,0,0,1,2-1.72"/><path class="cls-3" d="M248.58,38.73,251.33,40c1,.45,2.42,1.14,2.79,1.38s.27.83.17,1.19l-.12.36.38.17,1.63-3.64-.38-.17-.44.77a.61.61,0,0,1-.8.31h0c-.43-.12-1.87-.72-2.88-1.16l-2-.88h0c2.58-.53,4.94-.68,7.52-1.29l1.07-2.4-4.28-2a18.09,18.09,0,0,1-2.36-1.19c-.5-.36-.26-.8-.16-1.12l.14-.38-.36-.17-1.6,3.6.36.17.41-.74a.57.57,0,0,1,.73-.34l0,0a20.14,20.14,0,0,1,2.43.94L255,34h0c-1.94.47-4.29.94-6.09,1.29l-1.7,3.81.36.17c.36-.75.47-.79,1.06-.53"/><polygon class="cls-3" points="247.25 55.7 248.16 53.11 248.94 55.7 251.54 55.7 249.4 57.33 250.24 59.88 248.09 58.25 245.75 59.94 246.74 57.27 244.64 55.7 247.25 55.7"/><polygon class="cls-3" points="341.39 55.7 342.31 53.11 343.09 55.7 345.69 55.7 343.54 57.33 344.39 59.88 342.25 58.25 339.89 59.94 340.88 57.27 338.8 55.7 341.39 55.7"/><path class="cls-3" d="M328.43,36.87V25.38h-10.7a38.91,38.91,0,0,0-45.13,0H262V36.71a39,39,0,1,0,66.43.13m-.83,14.29a19.52,19.52,0,0,1-30.47,18.34q-.57-.39-1.1-.83l-.5-.41a19.78,19.78,0,0,0,0-29.71l.23-.19.63-.5a19.52,19.52,0,0,1,31.22,13.31M305.34,82.28a2.05,2.05,0,0,1-.43,0c-.17,0-.32.06-.49.08s-.36-.17-.56-.12l-.47.12-1.29.27a12.34,12.34,0,0,1-1.81.08,8.53,8.53,0,0,1-1,0,2.06,2.06,0,0,1-1-.1,4.6,4.6,0,0,1,1-.31,8.93,8.93,0,0,0,1.11-.19,23.36,23.36,0,0,0,2.32-.77,11.31,11.31,0,0,1,2.32-.77,6.55,6.55,0,0,1,1,0h1.64a9,9,0,0,0,2.38-.63,5.63,5.63,0,0,1,1.41-.35h.7a.47.47,0,0,1,.3.08c.09,0,.36.36.25.47s-.14.25-.31.25h-.38c-.1,0-.27.19-.35.26l-1.14,1A20.75,20.75,0,0,1,309,83a9.3,9.3,0,0,1-1,.62,7.18,7.18,0,0,1-1.1.62,11.28,11.28,0,0,1-2.44.53,11.49,11.49,0,0,1-2.27,0,8.81,8.81,0,0,1-1.74-.47c-.62-.18-1.29-.35-1.83-.57s-1.19-.53-1.78-.75a16.57,16.57,0,0,0,2.24.19h3.73a5.45,5.45,0,0,0,1.16-.23,7.13,7.13,0,0,0,2.36-.84,2.46,2.46,0,0,0-1,.18M295.16,67.86a19.26,19.26,0,1,1,6.55-14.47,19.26,19.26,0,0,1-6.55,14.47m0-48.63a37.71,37.71,0,0,1,20.67,6.16H274.46a37.71,37.71,0,0,1,20.67-6.17M257.26,57.17A37.7,37.7,0,0,1,262,38.77V62.2a28.43,28.43,0,0,0,1,7.75,29.22,29.22,0,0,0,7.75,12.71A45.36,45.36,0,0,0,282,90.57a61.25,61.25,0,0,0,9.57,4q1,.32,2.08.61a38,38,0,0,1-36.36-38m35.79,29a3.38,3.38,0,0,1-1-1,2.76,2.76,0,0,0-.52-.63c-.22-.18-.45-.47-.75-.49s-.66,0-1,0c-.1,0-.22-.21-.28-.27a1.49,1.49,0,0,0-.36-.28l-.35-.23c-.18-.13-.18-.22-.35,0a6.69,6.69,0,0,1,.77.92c.09.13,0,.39.23.39a4.75,4.75,0,0,1,.77,0c.88.13,1.38,1,1.72,1.77a3.63,3.63,0,0,1,.23,1.29,3.14,3.14,0,0,1,0,.5,3.8,3.8,0,0,1-.25.58s-.13.44-.19.45l-.7.19a2.36,2.36,0,0,1-1.17-.14,3.28,3.28,0,0,1-1.17-.65c-.12-.08-.44-.23-.5-.36l-.38-.77a1.29,1.29,0,0,1-.08-.56,2.36,2.36,0,0,1,0-.71,2.58,2.58,0,0,1,.68-1.29c.12.23.16.47.26.7a.32.32,0,0,0,.56.1c.23-.22-.18-.43-.3-.56a.35.35,0,0,1-.09-.3.4.4,0,0,0-.13-.35,5.17,5.17,0,0,0-.56-.58c-.13-.12-.47-.32-.5-.49s-.1-.67-.34-.36,0,.41.09.67a4.86,4.86,0,0,1-1.29-.27c-.38-.1-.75-.23-1.12-.35a19.87,19.87,0,0,1-2.13-.89,16.38,16.38,0,0,0-2.31-.72,1.29,1.29,0,0,0-.45,0c-.19,0-.54-.12-.71,0a1,1,0,0,1-.52.16,1.1,1.1,0,0,1-.59-.21c-.61-.47-.66-1.37-1.14-2a6.32,6.32,0,0,0-1.68-1.68c-.26-.14-.76-.43-.85-.72s-.13-.41.13-.41a.58.58,0,0,1,.58.27c.23.27.71.13,1,.3l1.06.66c.71.44,1.29,1,2,1.45a10.45,10.45,0,0,0,2.05,1.09,8.1,8.1,0,0,0,2.12,1,3.35,3.35,0,0,1,1.17.36c.21.1.3.12.45,0a1.16,1.16,0,0,0,.3-.5.88.88,0,0,1,.17-.22l-.14-.22a1.29,1.29,0,0,1-.14-.54,2.16,2.16,0,0,1,.31-.54,2.78,2.78,0,0,1,.39-.45,2.17,2.17,0,0,1,.84-.63,5.17,5.17,0,0,1,1.14-.21,2.43,2.43,0,0,1,1.14,0,2.07,2.07,0,0,0,.57.25,4.42,4.42,0,0,1,.53,0,1.07,1.07,0,0,1,.27,1,4.16,4.16,0,0,1-.56,1.17c-.12.16-.17.4-.32.5a6.25,6.25,0,0,1-.67.41,3.24,3.24,0,0,1-1.38.38,2.36,2.36,0,0,1-.7-.06c-.14,0-.56,0-.58-.18s.19-.41.36-.57-.09-.47-.17-.61-.13.09-.13.16v.25l-.43.43s-.13.1-.13.16v.27a2.84,2.84,0,0,1-.34.4c.35.17.71,0,1.09.09.16,0,.34.17.49.17h1.45c.14,0,.31-.17.49-.19a3,3,0,0,0,1-.4,1.43,1.43,0,0,0,.49-.26c.14-.16.28-.3.41-.45a5.88,5.88,0,0,1,.79-.87c.61-.49,1.23-1,1.87-1.41a15.5,15.5,0,0,1,2.21-1.31,4.13,4.13,0,0,1,1.12-.16,6.4,6.4,0,0,0,1.29-.09,9,9,0,0,1,2.22,0c.45.08.94.06,1.38.18a3.76,3.76,0,0,0,1.23.14h1.19c.4,0,.79-.09,1.17-.12a2.87,2.87,0,0,1,1.06.13c.22.08,1.12.34.66.61a3.71,3.71,0,0,1-1.15.36,3.61,3.61,0,0,0-1,.5,8.44,8.44,0,0,1-1,.62c-.38.16-.74.31-1.11.44a18.5,18.5,0,0,1-2.25.71c-.4.09-.76.26-1.16.36a2.88,2.88,0,0,1-.59,0,1.21,1.21,0,0,0-.58.16,2.25,2.25,0,0,1-.57.09,5.84,5.84,0,0,0-.59.14c-.39.1-.8.14-1.2.22-.77.13-1.57.17-2.34.26a9.78,9.78,0,0,1-1.16,0h-.52a2.25,2.25,0,0,1-.56,0c-.43-.09-.65.18-1,.28a2,2,0,0,0-.52.26c-.18.12.35.3.38.31a7,7,0,0,0,1.29.08.63.63,0,0,0,.45-.08,1.29,1.29,0,0,1,.57-.19,9,9,0,0,1,2.26,0,3.76,3.76,0,0,1,1.29.23l1.14.43c.71.26,1.38.57,2.09.85a5.48,5.48,0,0,0,1.21.32c.32,0,.62.26.93.34a9.45,9.45,0,0,0,2.31.41h.84c.28,0,.54-.18.84-.13a2.79,2.79,0,0,0,.66,0,2.58,2.58,0,0,1,.49.22c.32.13.45.09.38.47a1.57,1.57,0,0,1-.47.14,2.88,2.88,0,0,0-.63,0,11.51,11.51,0,0,0-1.57.63,8.45,8.45,0,0,1-1.15.54l-1.39.41a7.75,7.75,0,0,1-2.31.41,6.23,6.23,0,0,1-2.58-.4l-1.12-.54a28.67,28.67,0,0,1-2.58-1.29m2.95,9c1.43-.3,2.86-.67,4.25-1.1a55.55,55.55,0,0,0,10.27-4.28,31.81,31.81,0,0,0,9.34-7.2c3.26-3.73,6.17-7.75,7.38-12.58a22,22,0,0,0,1-7.83V39A37.93,37.93,0,0,1,296,95.11"/><path class="cls-3" d="M298.37,87a11.82,11.82,0,0,0,1.19.13,3.88,3.88,0,0,0,1.54,0,7.47,7.47,0,0,1,1.21-.23v-.18a6.6,6.6,0,0,0-1.17,0,8.78,8.78,0,0,1-1.51-.25c-.5-.09-1-.3-1.57-.43A21.12,21.12,0,0,1,295.29,85a6,6,0,0,0-2.36-.38c.06.25.9.34,1.11.39a4.35,4.35,0,0,1,.94.47,23.54,23.54,0,0,0,2.12,1.1,5.34,5.34,0,0,0,1.2.49"/><path class="cls-3" d="M277.83,78.8a3,3,0,0,0-.72-.58c-.13.19.41.52.54.63s.75.76.63,1.07c-.08-.14-.21-.17-.23,0a1.29,1.29,0,0,0,.09.39,1.82,1.82,0,0,0,.19.43.28.28,0,0,0,.49-.14,1.82,1.82,0,0,0-.28-1.12,5.58,5.58,0,0,0-.7-.7"/><path class="cls-3" d="M291.89,81.65c.75-.23,1.47-.47,2.22-.68s1.53-.32,2.29-.47a15.26,15.26,0,0,1,2.4-.35A10.34,10.34,0,0,0,300,80a3.41,3.41,0,0,0,.94-.41,4.17,4.17,0,0,1,1.29-.35,4.94,4.94,0,0,0,1.06-.08s.25-.08.23-.13,0-.14-.17-.14h-.63a7.66,7.66,0,0,0-1.07.16c-.83.1-1.64,0-2.47.14a16.79,16.79,0,0,0-2.17.39,21.11,21.11,0,0,0-2.71.81c-.88.38-1.74.79-2.58,1.19,0,.1.13.09.21,0"/><path class="cls-3" d="M273.26,40a1.29,1.29,0,0,1,.7-.45c.1,0,.26.06.22.17s-.18.21-.22.34a2.32,2.32,0,0,1-.39.84c-.13.16.06.17-.19.26a1.11,1.11,0,0,0-.36.18.56.56,0,0,1-.34.12c-.14,0-.26-.17-.39-.17s-.3,0-.3-.08a.74.74,0,0,1,.25-.36c.13-.12.49,0,.75-.12s.21-.52.26-.74"/><path class="cls-3" d="M271.68,41.23c.1,0,.21.06.06.13s-.19,0-.06-.13"/><path class="cls-3" d="M295.31,39.45a7.75,7.75,0,0,0-.94-.65c-.34-.21-.56-.53-.89-.76a2.89,2.89,0,0,1-.41-.39c-.12-.12-.32-.16-.45-.26a1.82,1.82,0,0,0-1-.49,3.68,3.68,0,0,0-.5,0,.71.71,0,0,0-.57.18h-.26c-.06,0-.09.21-.1.25a1.93,1.93,0,0,1-.22.52c-.1.13-.21.3-.39.3a3.5,3.5,0,0,0-.65,0l-.59.06c-.17,0-.31.14-.47.17a2.08,2.08,0,0,1-.63.08,4.71,4.71,0,0,0-.63-.08c-.27,0-.31,0-.49.16a2.12,2.12,0,0,1-.44.4,7.25,7.25,0,0,1-1.12.59,1.8,1.8,0,0,0-.56.27c-.26.21,0,.21,0,.45-.18,0-.26-.12-.38-.25s-.13-.35-.19-.34a.41.41,0,0,0-.35.21c-.12.22-.14.17-.39.12a4.26,4.26,0,0,0-1,0c-.18,0-.61-.16-.72,0s-.25.12-.43.14,0-.38,0-.47a1.55,1.55,0,0,1-.34-.47.84.84,0,0,0-.88-.52.56.56,0,0,1-.45-.13c-.16-.13-.44-.14-.53,0a1.29,1.29,0,0,1-.41.32c-.08,0-.12.12-.19.16s-.19,0-.28,0-.26.22-.43.22a3.22,3.22,0,0,0-.65.09,2.07,2.07,0,0,1-.5,0c-.21,0-.31.18-.44.34a.57.57,0,0,0-.14.45c0,.21.27.18.43.19s.17,0,.17.06v.26c0,.19-.21.27-.21.45s.85.13,1,0,0-.17.1-.23a.56.56,0,0,1,.22-.16c.18-.09.21-.34.32-.49a2.25,2.25,0,0,1,.89-.63c.12,0,.47,0,.47.08a.57.57,0,0,1-.26.5c-.13,0-.4-.08-.52,0s-.3,0-.41.28-.12.14,0,.25.1.19.08.19a1.9,1.9,0,0,0,.56,0,1.91,1.91,0,0,1,.57-.14c.23,0,.39,0,.21.25s-.71.12-1,.22a4,4,0,0,1-.61.18.79.79,0,0,0-.52.12,5.75,5.75,0,0,0-.43.39c-.13.13-.44-.1-.53-.16-.4-.22,0-.75-.25-1s-.4,0-.52,0a.87.87,0,0,0-.54.09,4.16,4.16,0,0,1-1,.54,3,3,0,0,0-.5.21,1.8,1.8,0,0,1-.57,0H272c-.16,0-.26.14-.4.39a2.14,2.14,0,0,1-.31.39c-.16.16-.21.34-.36.49s-.31-.19-.39-.23-.41.09-.53,0-.27-.22-.44,0a.85.85,0,0,0-.32.47.63.63,0,0,1-.22.4c-.13.13-.35.25-.27.43a1,1,0,0,1,.12.57c0,.25.35.18.5.18a7,7,0,0,1,.8.1c.31,0,.26-.08.43-.3s.16-.12.19-.19-.06-.16.08-.17a1.26,1.26,0,0,1,.54.06.53.53,0,0,0,.5.08.57.57,0,0,1,.53,0c.14.14.22.31.35.45s0,.4,0,.54a.44.44,0,0,0,0,.27.44.44,0,0,1,.16.32c0,.21,0,.25-.19.38s0,.23,0,.28a.94.94,0,0,0,.65-.3l.08.27c.32-.32.3-.56.3-1,0-.14-.23-.22-.23-.41v-.26c0-.17,0-.19.13-.19.44,0,.39.57.39.88a5,5,0,0,1-.06,1c.22,0,.74,0,.81-.3s-.06-.3-.06-.41.22-.06.32-.06a1.38,1.38,0,0,0-.1.57c0,.08-.1.08-.09.17a.94.94,0,0,0,0,.3c.09.12.38.13.49.23a.3.3,0,0,1,.12.25c0,.16.09,0,.21.08s.32.28.28.38-.16.38-.31.43a1.37,1.37,0,0,1-.52-.09,1.45,1.45,0,0,1-.57-.26,1.07,1.07,0,0,0-.45-.3,1.36,1.36,0,0,0-.5,0h-.52a1.49,1.49,0,0,0-.28-.5c-.21-.21-.8-.14-.8-.57v-.26h.16a2.43,2.43,0,0,0,.3.47c.17-.12.12-.28,0-.45a.58.58,0,0,0-.16-.17c-.13-.12-.08-.08-.25-.08s0,.09-.17,0a.32.32,0,0,1-.14-.19c0-.13,0-.13-.17-.17s-.14-.16-.25-.19a1.57,1.57,0,0,0-.47,0h-.75a1.29,1.29,0,0,1-.47,0l-.62-.31s-.3-.22-.32-.19l-.32.22-1.29.92a8.19,8.19,0,0,0-1.73,1.29l-1,1.19a2.18,2.18,0,0,0-.19.93l-.21,1.29a5.06,5.06,0,0,1-.17.57,1.75,1.75,0,0,0,.12.43,11.9,11.9,0,0,0,.4,1.2l.3.66a1.29,1.29,0,0,1,0,.54c0,.25,0,.26.19.44s.26.13.53,0,.28-.1.49.1.28.13.52.14,1,0,1.15,0a2.21,2.21,0,0,0,.39.38c.14.08.49.19.58.34s0,.49,0,.63a.92.92,0,0,0,.09.47c.18.4.35.8.5,1.21s.41.63.41,1v.66a2.17,2.17,0,0,1-.22.59.47.47,0,0,0,.1.36l.41.72a6.83,6.83,0,0,1,.36.84c.34.8.66,1.61,1,2.39l.56,1.11a.61.61,0,0,0,.41.19c.16,0,.31-.25.45-.31l1.19-.59c.35-.17.32-.67.41-1s.09-.21.27-.28a.57.57,0,0,0,.42-.69l0-.09c0-.09-.12-.17-.16-.25a1.9,1.9,0,0,1,0-.5c0-.4.21-.47.45-.72a1,1,0,0,0,.32-.92V58.81c0-.17-.57-.7-.4-.88l.74-.74a24.77,24.77,0,0,0,1.78-1.91,2.65,2.65,0,0,0,.45-1,1.53,1.53,0,0,1,.18-.54c0-.08.36-.44.18-.49a1.68,1.68,0,0,0-1.29.38,1.51,1.51,0,0,1-.58-.06c-.39-.18-.36-.65-.59-.92s-.25-.39-.39-.45a.33.33,0,0,0-.26,0s0-.31,0-.36a5.17,5.17,0,0,0-.34-1.07,1.47,1.47,0,0,0-.26-.5,1,1,0,0,1,0-.54V49.2c0-.13.28-.38.39-.27a6,6,0,0,1,.31,1.07,6.55,6.55,0,0,0,.4,1.15c.1.19.25.25.43.36s.12.3.14.45a6.37,6.37,0,0,0,.19.84c.08.25.25.23.47.3s.41-.1.56-.14l.56-.18a6.69,6.69,0,0,0,1-.59,1.29,1.29,0,0,1,.53-.16c.13,0,.3-.34.36-.44s.25-.23.3-.38.35-.52.22-.52h-.26a.78.78,0,0,0-.18-.39c-.16-.16-.65-.12-.88-.12s-.28,0-.44-.23a3.14,3.14,0,0,1-.26-.54.7.7,0,0,1-.06-.35.44.44,0,0,1,.36.23,1.64,1.64,0,0,1,.06.5h.49a.46.46,0,0,1,.44.21c.18.21.26.28.36.3l.61.09a2.72,2.72,0,0,1,.92,0,.59.59,0,0,1,.47.21,2,2,0,0,1,.28.44c.14.25.13.27.41.3s.18,0,.21.23a2.92,2.92,0,0,0,.22,1.1,8.72,8.72,0,0,0,.65.94,8.17,8.17,0,0,0,.59.83,1.61,1.61,0,0,0,.43-.87.44.44,0,0,1,.18-.34c.13-.13.12-.25.12-.43a1,1,0,0,1,.4-.88c.23-.22.5-.39.72-.62a1,1,0,0,1,.83-.35c.18,0,.31,0,.39.19s0,.32.08.45.08.16.13.18a.74.74,0,0,1,.21.09c.08.09.1.35.17.47.19.4.41.45.68.08a2.75,2.75,0,0,0,.3.9,3.35,3.35,0,0,1,.28,1,4,4,0,0,0,.4,1c.18.28.36.67.71.76.16,0,.27,0,.19-.19s-.12-.08-.13-.14v-.32a2.11,2.11,0,0,0-.36-.93,1.64,1.64,0,0,0-.43-.32.63.63,0,0,1-.18-.4.79.79,0,0,1,.26-.84c.23.23.56.77.89.83s.31-.22.45-.36.16,0,.21-.1a.5.5,0,0,0,.21-.3,2,2,0,0,0-.25-1.29,1.8,1.8,0,0,1-.1-.71c0-.13.32-.38.43-.47.09.1.21.16.1.26a.23.23,0,0,0,0,.32h0c.08.1.27-.06.32-.13s0-.3,0-.38a.54.54,0,0,1,.44-.52c.19,0,.43-.4.57-.54a1.51,1.51,0,0,0,.22-.65,3.31,3.31,0,0,0,0-.87,2.7,2.7,0,0,0-.57-1.51c.09-.09.27-.25.14-.39s-.31.08-.43.19-.23-.39-.12-.47l.23-.17c.13-.13.12-.1.25,0s.23.25.36.35.12.35.17.56.09.14.16.21.1,0,.17-.08.3-.23.3-.38v-.54a.79.79,0,0,1-.31-.57,1.29,1.29,0,0,1,.22-1c.19-.19.21-.18.08-.44,0,0-.14-.1-.12-.16a.47.47,0,0,0,.06-.3c0-.39.22-.66.08-1.06a3,3,0,0,0-.56-1l-.43-.39c-.12-.1-.38-.23-.44-.36s0-.18,0-.26-.14-.14-.19-.19-.34.13-.47.13,0-.5,0-.54a.52.52,0,0,1,.36-.34.6.6,0,0,0,.54-.18c.17-.18.12-.31.26-.45a3.46,3.46,0,0,1,.45.7l.13.26h.17s.14.19.39.19.54.26.83.26.31.06.31-.18a.81.81,0,0,0-.17-.41m-18.39,2.46c.16,0,.12.1,0,.16s-.17-.12,0-.16m.88,4.4c-.18.25-.72-.22-1-.17s-.4,0-.34-.21.12-.4.23-.47.34-.22.44-.14a.28.28,0,0,1,.14.21c0,.1.1.06.21.06a.33.33,0,0,1,.36.26c.08.26.09.26,0,.44m1.93-.14a.47.47,0,0,0-.12.49.54.54,0,0,1,0,.53c-.08.13-.09.47-.35.41s-.3.1-.4-.13,0-.25.17-.25.1-.3.09-.45a1.65,1.65,0,0,1,0-.52c0-.22.12-.27.32-.34s.47,0,.36.25"/><path class="cls-3" d="M272.17,39.79c.08,0,.17-.12.22-.09l.27.08c.19,0,.25.1.27.3s0,.28-.08.36a1.19,1.19,0,0,1-.45.14,1.38,1.38,0,0,0-.47.06c-.18.1-.26.16-.38-.08s.12-.28.27-.41a3.27,3.27,0,0,0,.31-.38"/><path class="cls-3" d="M277.33,59.66c0-.25,0-.28.27-.35s.3.21.35.31a2.08,2.08,0,0,1,.1,1.15c0,.16-.19.34-.28.47a1.29,1.29,0,0,0-.19.43,1.49,1.49,0,0,0-.1.57c0,.13.18.39.1.47s-.27.32-.36.26a4.74,4.74,0,0,1-.44-.41c-.22-.23-.13-.72-.13-1a1.63,1.63,0,0,0,0-.57.76.76,0,0,1,0-.49.59.59,0,0,1,.26-.45c.14-.08.23-.27.41-.36"/><path class="cls-3" d="M284.78,54.37a5.41,5.41,0,0,1,.35-.43,2.4,2.4,0,0,1,.08.58c0,.17-.12.5-.34.4s-.12-.43-.1-.56"/><path class="cls-3" d="M288.09,55a1.54,1.54,0,0,1,.94.18,4.26,4.26,0,0,1,.7.67c.21.23.47.41.67.65s0,.67-.06.87-.49-.47-.53-.56c-.16-.3-.41-.5-.56-.81a1.13,1.13,0,0,0-.62-.59,1.6,1.6,0,0,1-.43,0c-.1,0-.23-.3-.12-.38"/><path class="cls-3" d="M290.69,56.89a5.46,5.46,0,0,1,.22.58c0,.14.47.17.59.18s.41,0,.52.16,0,.47-.16.39-.23-.23-.47-.23a1.29,1.29,0,0,1-.57-.14c-.18-.08-.41-.16-.23-.38s-.08-.4.08-.56"/><path class="cls-3" d="M292.35,58.21a.57.57,0,0,1,.43.1,1.15,1.15,0,0,0,.41,0,1.29,1.29,0,0,1,.47.08c.22.08.25.13,0,.27s-.68-.08-.84-.13a1.17,1.17,0,0,0-.41-.1c-.14,0-.32-.19-.1-.26"/><path class="cls-3" d="M294.35,58.7h.34s.1.28-.12.31a1.53,1.53,0,0,1-.35,0c-.14,0-.19.06-.34.1a1.09,1.09,0,0,1-.34,0c-.12,0-.22-.25,0-.25a1.54,1.54,0,0,0,.84-.14"/><path class="cls-3" d="M291.16,55.23a1.55,1.55,0,0,0,.83-.34,3.55,3.55,0,0,0,.4-.35c.12-.14.23-.38.43-.28s.43.18.41.26-.14.17-.35.3-.08.27,0,.4a.47.47,0,0,1,0,.5c-.12.22-.28.34-.28.43s-.16.23-.21.41-.17.21-.3.09a.63.63,0,0,0-.44-.21c-.1,0-.4.12-.49.06a2.17,2.17,0,0,1-.17-.45.84.84,0,0,1-.1-.47c0-.22,0-.31.26-.36"/><path class="cls-3" d="M294.44,55.8a1.51,1.51,0,0,0-1,.18,1,1,0,0,0-.4.84,1.15,1.15,0,0,0,0,.49c0,.09.31.32.41.3.34-.08-.28-.53-.1-.8.13,0,.13.16.18.27a.38.38,0,0,0,.28.23c.17.05.32,0,.27-.14a.63.63,0,0,0-.27-.25c-.35-.17.27-.16.36-.25s-.34-.19-.47-.25.25-.28.43-.31.49-.16.3-.32"/><path class="cls-3" d="M294.73,55c.12-.06.36,0,.36.16v.3c0,.1.16,0,.25.12s-.09.3-.16.36-.52-.13-.59-.28.13-.44.19-.65"/><path class="cls-3" d="M294,53.47c0-.16.18-.4.32-.35s.16.34.09.45.13.27.13.49.21.45,0,.52-.26-.12-.45-.21a.56.56,0,0,0-.27,0,.31.31,0,0,1-.18.1c-.09,0-.21-.27-.06-.34s.32-.17.52,0c0-.1.13-.21.12-.32s-.09-.17-.14-.27"/><path class="cls-3" d="M293.62,52.78c.12,0,.39.32.18.35s-.38-.23-.18-.35"/><path class="cls-3" d="M294,52.42s.22.23.21.3-.19.1-.3.1-.16-.65.09-.39"/><path class="cls-3" d="M293.35,51a.54.54,0,0,1,.39.25c.13.18,0,.23-.12.35s.08.38.14.45.08.39,0,.38a.81.81,0,0,1-.47-.19c-.14-.16,0-.23,0-.4s-.27-.74.13-.83"/><path class="cls-3" d="M293.55,49.3a.56.56,0,0,1,.12-.36c.12-.14.25.08.27.17a1.49,1.49,0,0,1,.1.7c-.06.3-.32.35-.54.14a1.88,1.88,0,0,1,0-.65"/><path class="cls-3" d="M295.57,55.7c-.3-.49.16-.47.54-.41s.19.16.28.31,0,.13,0,.18a.29.29,0,0,0,.14.28c.14.06.67-.35,1-.12s.5.63.81.83a3.07,3.07,0,0,1,.47.3.63.63,0,0,0,.17.19c.08,0,.16,0,.23.14.19.35.39.71.57,1.07s.5.93.18,1-.3-.36-.35-.5-.35,0-.5-.09-.39-.47-.61-.47-.32.4-.65.22-.32-.4-.62-.5-.58-.22-.43-.5a.56.56,0,0,0,0-.36.44.44,0,0,0-.17-.35,1.29,1.29,0,0,0-.68-.34,1.15,1.15,0,0,1-.39-.09c-.09,0-.16-.22-.25-.3s-.22-.17,0-.26a.67.67,0,0,1,.36-.12c0-.08,0-.09-.1-.12"/><path class="cls-3" d="M299.9,56.21a.45.45,0,0,1,0-.12c.3,0,.83.34.7.65a.25.25,0,0,1-.26.17c-.13,0-.1-.13-.16-.23s0-.23-.1-.26a.21.21,0,0,1-.18-.21"/><path class="cls-3" d="M299.81,56.95a.9.9,0,0,1,0-.17c.19,0,.21.17.19.32a.41.41,0,0,1,0,.21c0,.08-.13.08-.17.14s-.35.1-.26-.13.32-.13.27-.39"/><path class="cls-3" d="M300.61,57c.34-.1.31.62.09.74s-.32-.59-.09-.74"/><path class="cls-3" d="M300.71,58a.38.38,0,0,1,.27-.18,1.88,1.88,0,0,1,0,.43c0,.09-.08.43-.16.47s-.17-.22-.19-.31-.12-.1,0-.23a.31.31,0,0,1,.16-.18"/><path class="cls-3" d="M295,59.11l.49.08h.59c.19,0,.18.14.18.35s-.16.25-.3.41.16.66.35.89.23.22.38,0a2,2,0,0,0,.3-.53c0-.16.16-.28.21-.44s.09-.45.26-.56c.47-.3.34.72.34,1a.79.79,0,0,0,.1.5.79.79,0,0,1,.06.65,2.29,2.29,0,0,0,.09,1.07,3.36,3.36,0,0,1,.08,1.15,2.36,2.36,0,0,1-.13.54,2.91,2.91,0,0,1-.28.45l-.27.54c-.08.16-.26.23-.34.39s-.18.34-.28.5a1.09,1.09,0,0,1-.39.4,9.38,9.38,0,0,1-.89.66,1,1,0,0,1-.49.1h-.59a.47.47,0,0,1-.45-.14c-.12-.09-.14-.36-.14-.52a4.34,4.34,0,0,1,0-1.15c-.17,0-.27.25-.43.17s-.16-.27-.27-.47-.3-.71-.79-.77a7.61,7.61,0,0,0-2.26.22,1.67,1.67,0,0,1-.4-.25.35.35,0,0,1-.12-.47,2.11,2.11,0,0,0,.25-.45,1.74,1.74,0,0,1,.08-.62c.08-.21.18-.27.25-.43s.09-.38.18-.56a1.41,1.41,0,0,1,.72-.71,7.14,7.14,0,0,0,1-.44.74.74,0,0,1,.27,0c.1,0,.13-.08.18-.16s.3-.23.43-.38a1.53,1.53,0,0,1,1-.43c.38-.06.61-.41.93-.61"/><path class="cls-3" d="M293.68,67.78a.52.52,0,0,1,.34.06c.1.06,0,.14,0,.17a.7.7,0,0,0,.23-.06c.09,0,.27-.19.39-.17a.17.17,0,0,1,0,.3l-.31.31c-.09.1-.12.3-.22.38s-.56.08-.52-.26a.31.31,0,0,1-.45-.27.75.75,0,0,1,.39-.45"/><path class="cls-3" d="M274.56,36.76a1.21,1.21,0,0,1,.45.06c.21.06.25,0,.41-.13.16.12.06.35,0,.47a.84.84,0,0,1-.68.25c-.21,0-.45,0-.45-.25s.19-.3.32-.4"/><path class="cls-3" d="M292.93,40.14a7,7,0,0,1,1.29,1c.16.13.18.14.21.34a.39.39,0,0,0,.19.31c.1.08.65.43.38.58s-.63-.14-.72-.21-.16-.54-.27-.72c-.28-.45-.87-.66-1.11-1.17l.12-.06"/><path class="cls-3" d="M295.56,40.25c.08,0,.56.27.28.31s-.4.12-.56,0l.27-.26"/><path class="cls-3" d="M295.76,40.86c.14,0,.14.12,0,.19s-.26,0-.36,0-.09-.19,0-.22a.45.45,0,0,1,.31,0"/><path class="cls-3" d="M294.9,42.49a2.4,2.4,0,0,0,.36.21c.1,0,.52-.17.58,0s.3.18,0,.32-.38.18-.43.3-.08.4-.18.38-.21-.39-.27-.58-.61-.59-.09-.62"/><path class="cls-3" d="M295.76,43.38c.16.1,0,.32.06.45s.26.1.28.28-.06.39,0,.54a1.37,1.37,0,0,1,0,.56.83.83,0,0,0-.08.18v.21c0,.05-.1,0-.13.12a1.8,1.8,0,0,0-.08.27c0,.22-.19.12-.34.21a2.05,2.05,0,0,1-.68.3c.06.14,0,.45-.26.34s0-.4,0-.5.25-.32.35-.49.3-.17.47-.18c0-.17-.36-.31-.36-.47s.35-.34.39-.53-.12-.54,0-.7.08-.59.31-.61"/><path class="cls-3" d="M295.43,46.58c-.19-.08-.74.26-.53.35s.59-.12.53-.35"/><path class="cls-3" d="M294.73,47.07l-.1-.17c-.1.1-.43.47-.3.61s.19-.1.25-.17.28-.12.14-.27"/><path class="cls-3" d="M297.8,37.42a1,1,0,0,0,.9-.38.72.72,0,0,1,.4-.3l.47-.18a3.61,3.61,0,0,0,.54-.21,1.65,1.65,0,0,1,.47-.26,1.57,1.57,0,0,1,1,.18c.25.1.75.13.85.43s0,.28.1.47a.79.79,0,0,1,.17.52.6.6,0,0,0-.09.17v.32c0,.14-.23.3-.34.4a.58.58,0,0,1-.43.22c-.12,0-.13-.58-.16-.67s-.19,0-.23.16a.4.4,0,0,1-.16-.22,4.68,4.68,0,0,1-.5.26,1.2,1.2,0,0,1-.52,0h-1.19a1.76,1.76,0,0,1-.49-.09c-.08,0-.21-.12-.25,0a.74.74,0,0,1-.22.21,2.58,2.58,0,0,1-.74,0,1.94,1.94,0,0,1-.65,0c.22-.44.84-.49,1.06-.93"/><path class="cls-3" d="M300.06,41.27a.36.36,0,0,1,.36.26c0,.17-.31.14-.41.14s-.4-.12-.36-.26.3-.13.41-.13"/><path class="cls-3" d="M299.26,41.66a.49.49,0,0,1,.36.14c.14.14-.09.23-.22.23s-.35,0-.44-.13.14-.14.3-.23"/><path class="cls-3" d="M304.9,44.25c.21.06.21.1.32.28s.23.31.08.41-.27-.23-.34-.32-.23-.21,0-.38"/><path class="cls-3" d="M306.85,38.26c.06-.14,0-.18.21-.16s.17,0,.26.13.25.39.1.61-.3.18-.5,0-.09-.45,0-.62"/><path class="cls-3" d="M308.53,36a1.51,1.51,0,0,1,.52-.57c.14-.09.71-.18.62.09a1,1,0,0,0-.4.06,2.44,2.44,0,0,0-.26.26,1.59,1.59,0,0,1-.23.25c-.1.08-.35.09-.25-.12"/><path class="cls-3" d="M309.37,35.94a.76.76,0,0,1,.57-.09c.1,0,.09-.32.16-.41s.17-.35.34-.41a1.53,1.53,0,0,1,.62-.12c.39,0,.76-.17,1.09.09s.19.08.41,0a.7.7,0,0,1,.57.1l.52.3a4.66,4.66,0,0,1,.45.35c.16.1.32,0,.49.09a1.41,1.41,0,0,1,.56.26c.22.18.18.19.21.47a1.45,1.45,0,0,0,.25.57c.08.14,0,.32.06.47a3.8,3.8,0,0,1,.26.58.8.8,0,0,0,.26.4.65.65,0,0,1,.27.44c0,.47-.3.57-.71.57a2.65,2.65,0,0,1-1-.23,2.71,2.71,0,0,1-1-.72,3.2,3.2,0,0,0-.39-.38c-.16-.12-.34-.13-.35-.32s.13-.43,0-.47l-.65-.1a5.45,5.45,0,0,0-1-.08,1.12,1.12,0,0,0-.56.09c-.13.09,0,.16,0,.19s-.23,0-.28,0c0,.57.65.27,1,.43s.75.19,1.11.31a.56.56,0,0,1,.4.28.85.85,0,0,0,.43.38l.54.19c.22.08.26.26,0,.35s-.36,0-.38.16.08.38.06.57,0,.36-.23.32a2.58,2.58,0,0,1-.56-.18c-.26-.12-1.1.21-1.07-.3,0-.17.18-.28.23-.45s-.14-.25-.3-.34a1.36,1.36,0,0,0-.59-.16,1.29,1.29,0,0,1-.57-.35s-.19-.09-.22-.17a3.52,3.52,0,0,0-.16-.32.73.73,0,0,0-.58-.35c-.34,0-.27-.3-.36-.5a1.29,1.29,0,0,1-.09-.32c0-.18,0-.1-.18-.14s-.13-.08-.14-.25-.18-.19-.16-.31.44,0,.44.16c.13,0,.16-.23.16-.35a.71.71,0,0,1,.16-.39"/><path class="cls-3" d="M316.94,37a.36.36,0,0,1,.51,0h0l0,0c.21.14.45.21.63.35a3.32,3.32,0,0,1,.5.47c.09.1.16.16,0,.27a.56.56,0,0,1-.31,0c-.28,0-.36-.14-.58-.27s-.1-.18-.23-.25a.44.44,0,0,0-.31,0c-.23.09-.41.09-.54-.14s-.08-.27,0-.28.26,0,.3-.17"/><path class="cls-3" d="M308.18,37.14c.1-.21.16-.38.4-.23s0,.36,0,.49-.35-.06-.38-.26"/><path class="cls-3" d="M307.65,37.85a1.87,1.87,0,0,1,.32-.39c.13-.13.39-.12.32.12A2,2,0,0,1,308,38c-.16.23-.31,0-.39-.17"/><path class="cls-3" d="M308.54,37.79c.25-.17.39,0,.41.28s-.09.4-.1.65c-.21,0-.36-.23-.49-.38s.08-.19.14-.23,0-.25,0-.32h.06"/><path class="cls-3" d="M307.83,38.35a.3.3,0,0,1,.42-.06l.06.06c.1.13.13.14.09.31a.57.57,0,0,0,0,.28.23.23,0,0,0,.23.12c.13,0,.18,0,.25.17s.16.13.21.22,0,.16-.13.25-.4,0-.61,0a1.09,1.09,0,0,1-.58-.22v-.57c0-.12-.21-.43,0-.57"/><path class="cls-3" d="M325.29,58.38a4,4,0,0,1-.45-.9c0-.09-.32-.21-.4-.26a1.51,1.51,0,0,0-.43-.16l-.9-.28-.39-.14h-.52a.9.9,0,0,0-.08-.77c-.13-.21-.28-.54-.56-.59a1.29,1.29,0,0,1-.8-.3,1.6,1.6,0,0,1-.21-.39,1,1,0,0,0-.34-.27c-.23-.16-.45-.35-.68-.52a3,3,0,0,0-.7-.52,1.91,1.91,0,0,1-.38-.13c-.17-.09-.27-.22-.41-.08s-.41.44-.67.41c.08-.16.23-.19.32-.34s.13-.13,0-.22-.13-.17-.21-.14a4.33,4.33,0,0,1-1.15.28c-.18,0-.22.26-.34.35s-.08,0-.1,0l-.1.08c-.06,0-.16.18-.25.17s-.32-.13-.47-.06-.39.25-.49.21-.38-.09-.45-.23a1,1,0,0,1,0-.52c.06-.35.21-.87-.32-.88-.32,0-.77.43-1,0s.61-.74.12-1-.74.19-1,.3a.44.44,0,0,1-.54,0A3.55,3.55,0,0,1,311,51a.72.72,0,0,1-.18-.53A1,1,0,0,1,311,50a1.57,1.57,0,0,1,.23-.56c.18-.18.3-.09.56,0s.34-.13.45-.18a3.49,3.49,0,0,1,.61-.14c.22,0,.28-.14.52-.09a.83.83,0,0,1,.47.36c.1.16,0,.32,0,.49s.17.44.34.26a.76.76,0,0,0,.14-1c-.09-.14-.19-.23-.17-.4a.81.81,0,0,1,.18-.47c.21-.27.41-.53.59-.81a3.37,3.37,0,0,0,.17-.92.94.94,0,0,1,.41-.8c.27-.12.17-.53.35-.79a8.88,8.88,0,0,1,.61-.77.47.47,0,0,0,.12-.36c0-.16-.3-.19-.19-.35s.16,0,.19-.08,0-.12-.09-.14a.47.47,0,0,0-.44.1c.09.1.21.12.13.25s-.14.32-.28.17,0-.21-.26-.26a1.86,1.86,0,0,0-.44,0c.1-.14.18-.3.35-.31a5.37,5.37,0,0,1,.56-.1c.21,0,.81-.19.85-.54s-.14-.31-.27-.46-.1-.18-.16-.19l-.31.08a3.61,3.61,0,0,1-1-.28,1.29,1.29,0,0,1-.89-.63c-.09-.13-.17-.3-.35-.18a.4.4,0,0,1-.49,0,1.85,1.85,0,0,0-1.1-.19c-.25,0-.31.08-.35.31s.06.27.25.41,0,.27.18.39.27.21.3.35a2.46,2.46,0,0,1,.08,1c-.19-.13-.35-.35-.57-.4a2.06,2.06,0,0,1-.66-.13l-.65-.35h-.29a1.54,1.54,0,0,0-.26-.27c-.22-.18-.18-.3,0-.47s.4-.31.44-.57-.19-.52-.1-.58a3.54,3.54,0,0,1,.65-.27c-.13-.31-.62-.47-.89-.67a2.93,2.93,0,0,1-.45-.31c-.16-.16-.14-.3-.38-.39s-.34-.12-.38.13a1.29,1.29,0,0,0,.1.56c.08.18.28.34.16.53s-.3.16-.53.17a1.69,1.69,0,0,1-1.06-.1l-.52-.27c-.18-.1-.26-.23-.47-.3a6.56,6.56,0,0,1-1.09-.14,9.3,9.3,0,0,1-1-.57l-.36-.19c-.09,0-.21-.19-.3-.22a4.18,4.18,0,0,0-.87.26,2.84,2.84,0,0,0-.8.25.57.57,0,0,0-.14.39c0,.19-.13.18-.31.19s-.14,0-.22.19-.14.17-.25.26a.88.88,0,0,0-.09.8c.06.19.16.22,0,.38s-.1.16-.35.1a.82.82,0,0,0-.76.1l.17.22h.23a1,1,0,0,0,.61.09c.19-.08.25-.23.44-.08s.4,0,.52-.08a3.42,3.42,0,0,1,1.2,0c.39,0,.59.44.75.75.35.66.54,1.39.88,2.05,0,.08.13.06.17.17a.56.56,0,0,1,0,.25V47c0,.12.26.32.34.5l.29.54c.08.17.27.32.32.47a4.48,4.48,0,0,0,.53,1c.21.31.35.72.68.92s0-.41,0-.45-.25-.26-.21-.47,0-.28-.18-.47l-.38-.47c-.13-.18-.08-.32.14-.26s.23.22.31.4a2.58,2.58,0,0,0,.25.47c.12.17.16.35.28.52s.23.19.32.32.14.44.28.54.36,0,.44.19.16.36.23.54a2.08,2.08,0,0,0,1.69,1.29,2.82,2.82,0,0,1,.54,0,1.64,1.64,0,0,1,.52.3,3.1,3.1,0,0,0,1,.53c.19,0,.35-.09.5,0s.17.34.35.44a1.57,1.57,0,0,0,.49.22.59.59,0,0,1,.23,0c.09.06,0,.21.14.26s.22-.13.28-.26a.27.27,0,0,1,.44-.12.88.88,0,0,1,.35,1c0,.16-.21.28-.28.43l-.31.58a1.9,1.9,0,0,0,0,1.06,1.93,1.93,0,0,1,.12.57,1.39,1.39,0,0,0,.16.62,3,3,0,0,1,.13,1.09,3,3,0,0,0,0,.57,1.61,1.61,0,0,0,.31.49,3.3,3.3,0,0,0,.41.45c.1.09,0,.39,0,.53a2,2,0,0,1,0,.4c0,.13-.12.22-.13.35a2.24,2.24,0,0,1-.27.75l-.14.34c0,.1-.18.13-.22.22s-.09.27-.14.4-.17.21-.18.32a3.18,3.18,0,0,0,0,.38.38.38,0,0,1-.09.31l-.38.59a6,6,0,0,0-.39.75,4.43,4.43,0,0,1-.43.65c.1,0,.23.16.17.26s-.25.16-.35.22-.47.3-.52.52.14.62,0,.77-.44.41-.1.56c-.18.28-.36.5-.1.8.08.08.28.21.31.31a2.87,2.87,0,0,1,0,.41c.13,0,.22-.14.32-.06l.22.14a.38.38,0,0,0,.22,0c.16-.06.08-.09,0-.22s-.06-.08,0-.22a.56.56,0,0,0,0-.25c-.13-.35-.25.1-.38-.08l.17-.19c.12-.1.08-.06.22-.1a.61.61,0,0,0,.39-.36,9.75,9.75,0,0,1,.54-1,4.23,4.23,0,0,1,.85-1,2.84,2.84,0,0,1,.81-.62,4.09,4.09,0,0,0,1.07-.45,11,11,0,0,0,.83-.81c.28-.28.7-.31,1-.57a1.9,1.9,0,0,1,.54-.23,3.35,3.35,0,0,0,.52-.3,9.71,9.71,0,0,0,.84-.57c.26-.21.49-.54.8-.66a2.29,2.29,0,0,0,.77-.52,2.08,2.08,0,0,0,.71-.79,1.55,1.55,0,0,1,.26-.47c.1-.14.08-.3.13-.45a3.16,3.16,0,0,1,.59-.88,3.87,3.87,0,0,0,.56-.85,3.79,3.79,0,0,1,.23-.43c.12-.18,0-.26-.08-.45M314.28,44.79c.06-.12.22-.09.32-.16a.21.21,0,0,1,.28.08l0,0c0,.17-.63.17-.74.12l.1-.06m-1.15-.17a1.17,1.17,0,0,1,.43.16c.1,0,.53.18.27.28s-.38-.09-.5-.13-.53-.26-.19-.32m-.28.13c-.12.16-.43.85-.67.67,0-.09.12-.14.14-.22l.09-.35c0-.18.35-.36.44-.1m-1.17-.58a1.46,1.46,0,0,0,.57-.12c.21-.13-.35-.25-.18-.43s.44.17.53.22a.8.8,0,0,1,.23.58c-.22,0-.41-.06-.63-.06s-.62,0-.52-.19"/><path class="cls-3" d="M317,44c-.06.1-.18.32-.3.36s-.12-.25,0-.36.19-.34.36-.31.13.22,0,.31"/><path class="cls-3" d="M317.09,42.6c0-.08.14-.32.28-.19s0,.3-.13.38c.17.09.61,0,.67.26a.31.31,0,0,1-.16.32c-.14,0-.21-.09-.27-.19s-.54.28-.68,0,.18-.47.28-.61"/><path class="cls-3" d="M314.42,50.81a2.58,2.58,0,0,0,1,.32.32.32,0,0,1,.32.27c0,.09-.4.09-.47.08a2.36,2.36,0,0,1-1-.4.39.39,0,0,1-.16-.38c0-.22.28,0,.38.08"/><path class="cls-3" d="M316.81,51.35c.26,0,.61,0,.68.28s-.18,0-.23,0a1.59,1.59,0,0,0-.44,0,.75.75,0,0,1-.38-.08c-.06,0-.13-.19-.23-.26s.19-.13.23-.13.27,0,.35.17"/><path class="cls-3" d="M317.87,51.71c.14,0,.16-.08.28,0s.18.16.17.21-.4-.06-.5-.13V51.7"/><path class="cls-3" d="M311.25,40.37a.43.43,0,0,1,.41.23c.08.17,0,.34-.22.27s-.34-.1-.43-.28,0-.18,0-.23a.79.79,0,0,0,.22,0"/></g><g id="Legacy"><path class="cls-3" d="M365.4,31h4.71V52.37H365.4Z"/><path class="cls-3" d="M374.46,31h6.39l9.08,14.84H390V31h4.71V52.37h-6.14l-9.34-15.26h-.06V52.37h-4.71Z"/><path class="cls-3" d="M403.18,35.18h-6.11V31H414v4.17h-6.11v17.2h-4.71Z"/><path class="cls-3" d="M416.46,31H431v4.34h-9.81v4h9.27v4.34h-9.27V48h10.35v4.33H416.46Z"/><path class="cls-3" d="M435.29,31h8.27c4.39,0,8.06,1.5,8.06,6.49,0,3-1.6,5.31-4.62,5.85l5.43,9h-5.65l-4.47-8.54H440v8.54h-4.71ZM440,39.87h2.78c1.72,0,3.95-.06,3.95-2.38,0-2.14-1.93-2.47-3.65-2.47H440Z"/><path class="cls-3" d="M455,31h6.4l9.08,14.84h.06V31h4.71V52.37h-6.14L459.8,37.11h-.06V52.37H455Z"/><path class="cls-3" d="M486.77,31h3.9L500,52.37h-5.31l-1.88-4.53h-8.3l-1.78,4.53h-5.18Zm1.81,6.23L486,43.88h5.22Z"/><path class="cls-3" d="M504.21,35.18H498.1V31H515v4.17H508.9v17.2h-4.71Z"/><path class="cls-3" d="M517.33,31H522V52.37h-4.71Z"/><path class="cls-3" d="M536.79,30.47c6.69,0,11.52,4.38,11.52,11.19s-4.85,11.19-11.52,11.19-11.53-4.39-11.53-11.19S530.12,30.47,536.79,30.47Zm0,18.11c4,0,6.65-2.9,6.65-6.88s-2.63-6.88-6.65-6.88-6.64,2.9-6.64,6.88S532.78,48.58,536.79,48.58Z"/><path class="cls-3" d="M551.65,31h6.4l9.08,14.84h.06V31h4.72V52.37h-6.14l-9.35-15.26h-.06V52.37h-4.71Z"/><path class="cls-3" d="M583.4,31h3.9l9.3,21.37h-5.3l-1.85-4.53h-8.31l-1.78,4.53h-5.17Zm1.82,6.23-2.6,6.65h5.22Z"/><path class="cls-3" d="M365.46,62.68h7.12l4.91,13.94h.06l4.95-13.94h7.12V84h-4.7V67.68h-.06l-5.64,16.39h-3.59l-5.41-16.39h-.06V84.07h-4.7Z"/><path class="cls-3" d="M404.48,62.15c6.68,0,11.53,4.39,11.53,11.19s-4.86,11.19-11.53,11.19S393,80.16,393,73.35,397.81,62.15,404.48,62.15Zm0,18.11c4,0,6.65-2.9,6.65-6.88s-2.63-6.88-6.65-6.88-6.62,2.9-6.62,6.87S400.49,80.27,404.48,80.27Z"/><path class="cls-3" d="M419.35,62.68h6.4l9,14.86h.06V62.68h4.71V84h-6.18l-9.32-15.23H424V84.08h-4.71Z"/><path class="cls-3" d="M444.12,62.68h14.52V67h-9.81v4h9.27v4.34h-9.27V79.7H459.2V84H444.14Z"/><path class="cls-3" d="M467.06,66.82H461V62.68h16.9v4.13h-6.11V84.06H467Z"/><path class="cls-3" d="M485.23,62.68h3.9L498.42,84h-5.31l-1.82-4.51H483l-1.75,4.53H476ZM487,68.89l-2.6,6.65h5.22Z"/><path class="cls-3" d="M500.66,62.68h8.27c4.39,0,8.06,1.5,8.06,6.49,0,3-1.6,5.31-4.62,5.85l5.43,9h-5.7l-4.47-8.54h-2.32V84h-4.71Zm4.71,8.84h2.78c1.72,0,3.95-.06,3.95-2.38,0-2.14-1.93-2.47-3.65-2.47h-3.07Z"/><path class="cls-3" d="M525.19,75l-8-12.21H523l4.53,8,4.8-8h5.58l-8,12.21v9.16h-4.7Z"/><path class="cls-3" d="M549.19,62.68h14.34V67h-9.61v4.34h8.9V75.7h-8.9V84h-4.73Z"/><path class="cls-3" d="M584.69,75.84c0,5.09-3.07,8.77-9,8.77s-9-3.75-9-8.77V62.68h4.71v13a4.32,4.32,0,1,0,8.6,0v-13h4.71Z"/><path class="cls-3" d="M589.07,62.68h6.4l9.08,14.84h.06V62.68h4.71V84h-6.14l-9.35-15.23h-.06V84.08h-4.71Z"/></g></g><rect class="cls-4" x="135" y="125.24" width="322" height="17.44"/><rect class="cls-5" x="355" y="122" width="102" height="22"/><rect class="cls-6" x="135" y="122" width="102" height="22" transform="translate(372 266) rotate(180)"/></svg>